# xmcd
#
# Track frame offsets:
#   151
#   13988
#   33525
#   48226
#   63031
#   74525
#   90123
#   111397
#   132523
#
# Disc length: 2225 seconds
#
# Revision: 0
# Processed by: cddbd v1.5.1PL0 Copyright (c) Steve Scherf et al.
# Submitted via: Precision_Digital_Audio_Extractor 1.50.0
#
DISCID=7808af09
DTITLE=Maaziah Mountain - My Dear America
DYEAR=2003
DGENRE=Folk
TTITLE0=Going to America
TTITLE1=Colonel Washington's Story
TTITLE2=One Life To Give
TTITLE3=Of The I Sing
TTITLE4=No Kinig But Jesus
TTITLE5=Ride, Paul, Ride
TTITLE6=My Dear America
TTITLE7=Liberty or Death
TTITLE8=This Flag {Star Spangled Banner Medley}
EXTD=
EXTT0=
EXTT1=
EXTT2=
EXTT3=
EXTT4=
EXTT5=
EXTT6=
EXTT7=
EXTT8=
PLAYORDER=
